<svg id="图层_1" data-name="图层 1" xmlns="http://www.w3.org/2000/svg" viewBox="0 0 123 30"><defs><style>.cls-1{fill:#151a38;}.cls-2{fill:#d04418;}</style></defs><title>logo</title><path class="cls-1" d="M88.8,17.4H99.5a.43.43,0,0,0,.4-.4l1-4.3c0-.2-.1-.4-.3-.4H90a.43.43,0,0,0-.4.4l-1,4.3C88.5,17.2,88.6,17.4,88.8,17.4Z"/><path class="cls-1" d="M22.3,17.4H33a.43.43,0,0,0,.4-.4l1-4.3c0-.2-.1-.4-.3-.4H23.5a.43.43,0,0,0-.4.4l-1,4.3C22,17.2,22.1,17.4,22.3,17.4Z"/><path class="cls-2" d="M62.6,11.8l3.8-3.1a.35.35,0,0,0,.1-.5L64.1,5.1a.45.45,0,0,0-.5,0L59.8,8.2a.35.35,0,0,0-.1.5l2.4,3.1C62.2,12,62.4,12,62.6,11.8Z"/><path class="cls-1" d="M61.6,13.9l-2.4-3.1a.45.45,0,0,0-.5,0l-3.8,3.1a.35.35,0,0,0-.1.5l2.4,3.1a.35.35,0,0,1-.1.5l-3.8,3.1a.35.35,0,0,0-.1.5l2.4,3.1a.45.45,0,0,0,.5,0L68.7,14.4a.35.35,0,0,0,.1-.5l-2.4-3.1a.45.45,0,0,0-.5,0l-3.8,3.1C61.9,14.1,61.7,14.1,61.6,13.9Z"/><path class="cls-1" d="M61,22.5l1.7,2.2a.45.45,0,0,0,.5,0L67,21.6a.35.35,0,0,0,.1-.5l-1.7-2.2a.45.45,0,0,0-.5,0L61.2,22C61,22.2,60.9,22.4,61,22.5Z"/><path class="cls-1" d="M70.9,11H81.6a.43.43,0,0,0,.4-.4l1-4.3c0-.2-.1-.4-.3-.4H72.1a.43.43,0,0,0-.4.4l-1,4.3C70.6,10.9,70.7,11,70.9,11Z"/><path class="cls-1" d="M69.5,17.4H70c.2,0,.3.2.3.4l-1.6,6.9c0,.2.1.4.3.4h5a6.28,6.28,0,0,0,5.8-4.7h0c0-.2-.1-.4-.3-.4H75.2c-.2,0-.3-.2-.3-.4l.4-1.8a.43.43,0,0,1,.4-.4H80a.43.43,0,0,0,.4-.4l1-4.3c0-.2-.1-.4-.3-.4H70.6a.43.43,0,0,0-.4.4l-1,4.3C69.1,17.2,69.3,17.4,69.5,17.4Z"/><path class="cls-1" d="M49.3,5.9a6.32,6.32,0,0,0-3.9,1.5A6.63,6.63,0,0,0,43.1,11L40,24.6c0,.2.1.4.3.4h4.3a.43.43,0,0,0,.4-.4l1.6-6.9a.43.43,0,0,1,.4-.4h.5c.2,0,.3.2.3.4l-1.6,6.9c0,.2.1.4.3.4h0a6.28,6.28,0,0,0,5.8-4.7L54,12.7c0-.2-.1-.4-.3-.4H48.1c-.2,0-.3-.2-.3-.4l.1-.5a.43.43,0,0,1,.4-.4h5.6a.43.43,0,0,0,.4-.4l1-4.3c0-.2-.1-.4-.3-.4Z"/></svg>